<?xml version="1.0" encoding="utf-8"?>
<!-- Generator: Adobe Illustrator 17.1.0, SVG Export Plug-In . SVG Version: 6.00 Build 0)  -->
<!DOCTYPE svg PUBLIC "-//W3C//DTD SVG 1.1//EN" "http://www.w3.org/Graphics/SVG/1.1/DTD/svg11.dtd">
<svg version="1.1" id="Capa_1" xmlns="http://www.w3.org/2000/svg" xmlns:xlink="http://www.w3.org/1999/xlink" x="0px" y="0px"
	 viewBox="0 0 2000 850" enable-background="new 0 0 2000 850" xml:space="preserve">
<g>
	<linearGradient id="SVGID_1_" gradientUnits="userSpaceOnUse" x1="1000.0175" y1="849.041" x2="1000.0175" y2="-4.489630e-08">
		<stop  offset="0.4606" style="stop-color:#FFF0C3"/>
		<stop  offset="0.9818" style="stop-color:#F9E388"/>
	</linearGradient>
	<rect x="0" fill="url(#SVGID_1_)" width="2000" height="849"/>
	
		<linearGradient id="SVGID_2_" gradientUnits="userSpaceOnUse" x1="999.9816" y1="780.4064" x2="999.9816" y2="241.74" gradientTransform="matrix(-1 0 0 1 2000 0)">
		<stop  offset="0.2909" style="stop-color:#FFF0C3"/>
		<stop  offset="0.9818" style="stop-color:#D3C67A"/>
	</linearGradient>
	<path fill="url(#SVGID_2_)" d="M0,326v454.4h2000V443.3c-28.6-11.6-55.8-21.1-81.6-38.6c-24.9-17-45.9-35.8-70.8-49.1
		c-42.1-20.8-89.9-15.1-135.8-35.8c-65.1-28.3-111-32.1-179.9,3.8c-32.5,15.1-61.2,24.5-97.6,30.2c-19.1,3.8-49.7,17-70.8,13.2
		c-11.5-3.8-34.1-9.1-45.2-15.5c-61.6-35.8-109.7,4.2-167.2,15.5c-55.5,11.3-118.6,3.8-176,3.8c-55.5,0-101.4,9.4-156.9-5.7
		c-57.4-13.2-105.2-50.9-162.6-37.7c-84.2,20.8-137.8-49.1-212.4-71.7c-55.5-17-93.8-20.8-151.2,1.9c-44,18.9-89.9,62.3-137.8,62.3
		c-38.3,0-61.2-17-99.5-7.5C34.3,317.1,17,322.3,0,326z"/>
	<linearGradient id="SVGID_3_" gradientUnits="userSpaceOnUse" x1="1000.0184" y1="756.9453" x2="1000.0184" y2="413.1042">
		<stop  offset="0" style="stop-color:#90BF84"/>
		<stop  offset="0.9818" style="stop-color:#A5B25F"/>
	</linearGradient>
	<path fill="url(#SVGID_3_)" d="M2000,460.2v296.7H0V449.2c25.4,4.6,50.6,11.1,73.6,15.3c81.1,13.2,162.3,15.1,243.4,13.2
		c154.7-3.8,309.4,9.4,462.3-22.6c109.4-20.8,211.3-26.4,322.6-26.4c84.9,0,166,17,250.9,17c75.5,0,150.9,11.3,226.4-1.9
		c64.1-13.2,126.4-34,194.3-30.2C1851.2,418.5,1925.7,439.3,2000,460.2z"/>
	<defs>
		<filter id="Adobe_OpacityMaskFilter" filterUnits="userSpaceOnUse" x="229.4" y="446.1" width="1561.8" height="276.8">
			<feColorMatrix  type="matrix" values="1 0 0 0 0  0 1 0 0 0  0 0 1 0 0  0 0 0 1 0"/>
		</filter>
	</defs>
	<mask maskUnits="userSpaceOnUse" x="229.4" y="446.1" width="1561.8" height="276.8" id="SVGID_4_">
		<g filter="url(#Adobe_OpacityMaskFilter)">
			<defs>
				<filter id="Adobe_OpacityMaskFilter_1_" filterUnits="userSpaceOnUse" x="229.4" y="446.1" width="1561.8" height="276.8">
					<feFlood  style="flood-color:white;flood-opacity:1" result="back"/>
					<feBlend  in="SourceGraphic" in2="back" mode="normal"/>
				</filter>
			</defs>
			<mask maskUnits="userSpaceOnUse" x="229.4" y="446.1" width="1561.8" height="276.8" id="SVGID_4_">
				<g filter="url(#Adobe_OpacityMaskFilter_1_)">
				</g>
			</mask>
			<linearGradient id="SVGID_5_" gradientUnits="userSpaceOnUse" x1="1010.3145" y1="722.8788" x2="1010.3145" y2="446.066">
				<stop  offset="0.1818" style="stop-color:#FFFFFF"/>
				<stop  offset="0.2228" style="stop-color:#F1F1F1"/>
				<stop  offset="0.4306" style="stop-color:#B1B1B1"/>
				<stop  offset="0.6197" style="stop-color:#7E7E7E"/>
				<stop  offset="0.7835" style="stop-color:#595959"/>
				<stop  offset="0.9158" style="stop-color:#434343"/>
				<stop  offset="1" style="stop-color:#3B3B3B"/>
			</linearGradient>
			<path mask="url(#SVGID_4_)" fill="url(#SVGID_5_)" d="M1791.2,506.4v216.5H229.4V531.6c4.1,0.9,8.1,1.6,12.1,2.2
				c71.7,15.4,148.4,12.3,218.6,0.6c4.7-5.5,7.5-12.1,6-19.3c-3.4-15.3-19.5-23.4-34.2-22.9c-9,0.4-36,3.6-27.5,16.8
				c4.6,7.1,26.9,1.6,20.6-4.7c-0.9-0.9,5.1-3.4,6.3-2.3c10.7,10.7-24.5,13.6-30.3,12.2c-10.3-2.5,1.6-20.1,5.9-23.1
				c13.5-9.6,31.2-9.8,40.8-8.3c22.7,3.5,70.2,22.2,64,42.7c13.9-2.3,27.8-4.5,41.8-6.4c-9.3-13-4.5-42.2,5-56.7
				c7.1-10.9,41-16.7,52.7-16.2c50.7,2.1,94,36,143.1,45.2c17.7,3.3,37,5.6,55.1,3.6c7.3-0.8,22.8-4.2,13.1-14.7
				c-6.4-7-14.7-10.9-23.3-14.7c-13.4-5.7-23.3-7.8-36-9.1c-6.2-0.6-12.8-0.6-19-1c-6.7-0.4,7.6,10.5,7.5,10.4
				c1.6,0.9,3.3,1.7,5,2.5c3.1,1.5-2.3,3.5-4.5,2.4c-4.4-2.2-22.6-8.4-18-16.4c2.8-4.8,11.1-6,15.3-6.3c37.2-2.6,62.7,8.8,80.8,24
				c18.5,15.6,10.1,29.5-20.7,28.9c-37.1-0.7-73.8-7.5-108.3-20.1c-21.4-7.8-133.5-49.2-123.5,2.3c2.7,13.7,9.5,23.6,18.9,30.7
				c67.3-6.9,135.3-7.1,199.6,9.5c65.9,19.1,119.6,36.4,190.7,17.4c20.5-5.5,40.9-12.5,61.4-19.4c0,0,0-0.1,0-0.1
				c8.7-8.4,16.2-19.4,8.8-29.1c-6.8-8.8-18.8-11.8-29.4-13.3c-19.5-2.8-41.4-6.1-62.4,1.9c-16.7,6.4-37.8,31.8-7.6,30.2
				c5.2-0.3,10.8-0.5,15.9-2c12.9-3.7,7.5-15.3-2.7-13.1c-3.8,0.7-7.6,1.4-11.4,2.1c-3.4,1.6-7.1-1.8-2.9-3.7
				c10-4.8,27.6-5.3,32.4,7.1c4.6,11.8-26.5,14.4-31.9,14.4c-11.3,0-26.5-2.1-21.9-17c5.5-17.6,29.3-27.6,45.2-31.8
				c5.2-1.4,12.2-2.2,20.2-2.5h0.1c39.5-4.3,195.7,5.5,297.1,30.6h0c1.1,0.2,2.2,0.4,3.2,0.5c20.4,3.3,41.7,9.5,61.8,14
				c54,12.1,107.3,26.5,163.2,23.8c13.8-0.7,36.5-2.1,44-15.9c4.3-7.7,7-18.5,0.6-26.1c-10.3-12.4-28-16.5-43.3-18.6
				c-8.5-1.2-15.3-2.1-26.7,0c-11.8,2.2-28.3,14.7-13.6,21.2c4.9,2.2,9.9,3.8,15.2,4.6c10,1.5,20,1.9,30.1,1.7
				c17.9-0.4,17.2-10.6,8.7-14c-3.2-1.4-6.5-2.4-9.9-3.1c-6.2-1.2-10.2,0.6-3.7,3.6c3.8,1.1-1.4,2.1-3.5,1.5
				c-6.8-2.1-9.5-5.3-1.9-8.6c7.2-3,17.7,0.1,24.3,3.3c7.4,3.5,13,10,5.8,16.4c-6.2,5.7-18.7,4.7-26.4,4.7
				c-9.3,0-74.9-5.7-51.6-29.9c14.1-14.6,52.7-12.2,70.3-9c16,2.9,77.9,15,56.8,75.6c33.8-4.7,67.7-8.3,101.5-14.2
				c8.9-7.3,15.7-20.2,12.5-31.9c-3.7-13.7-18.5-19-28-7.3c-7.8,9.7-2.2,15.6,9.4,14.6c4.6-0.4,3.1,4.5-0.6,4.8
				c-12.3,1.1-23.3-3-16.9-17.9c8.6-19.9,30.2-17.6,41.1-13.1c17.9,7.3,23.5,32.3,13.5,45C1752,517,1771.6,510.7,1791.2,506.4z"/>
		</g>
	</mask>
	<linearGradient id="SVGID_6_" gradientUnits="userSpaceOnUse" x1="1010.3145" y1="722.8788" x2="1010.3145" y2="446.066">
		<stop  offset="0.1818" style="stop-color:#FBC2AE"/>
		<stop  offset="0.4702" style="stop-color:#FADBC6"/>
		<stop  offset="0.7935" style="stop-color:#F9F2DA"/>
		<stop  offset="1" style="stop-color:#F9FAE2"/>
	</linearGradient>
	<path opacity="0.63" fill="url(#SVGID_6_)" d="M1791.2,506.4v216.5H229.4V531.6c4.1,0.9,8.1,1.6,12.1,2.2
		c71.7,15.4,148.4,12.3,218.6,0.6c4.7-5.5,7.5-12.1,6-19.3c-3.4-15.3-19.5-23.4-34.2-22.9c-9,0.4-36,3.6-27.5,16.8
		c4.6,7.1,26.9,1.6,20.6-4.7c-0.9-0.9,5.1-3.4,6.3-2.3c10.7,10.7-24.5,13.6-30.3,12.2c-10.3-2.5,1.6-20.1,5.9-23.1
		c13.5-9.6,31.2-9.8,40.8-8.3c22.7,3.5,70.2,22.2,64,42.7c13.9-2.3,27.8-4.5,41.8-6.4c-9.3-13-4.5-42.2,5-56.7
		c7.1-10.9,41-16.7,52.7-16.2c50.7,2.1,94,36,143.1,45.2c17.7,3.3,37,5.6,55.1,3.6c7.3-0.8,22.8-4.2,13.1-14.7
		c-6.4-7-14.7-10.9-23.3-14.7c-13.4-5.7-23.3-7.8-36-9.1c-6.2-0.6-12.8-0.6-19-1c-6.7-0.4,7.6,10.5,7.5,10.4c1.6,0.9,3.3,1.7,5,2.5
		c3.1,1.5-2.3,3.5-4.5,2.4c-4.4-2.2-22.6-8.4-18-16.4c2.8-4.8,11.1-6,15.3-6.3c37.2-2.6,62.7,8.8,80.8,24
		c18.5,15.6,10.1,29.5-20.7,28.9c-37.1-0.7-73.8-7.5-108.3-20.1c-21.4-7.8-133.5-49.2-123.5,2.3c2.7,13.7,9.5,23.6,18.9,30.7
		c67.3-6.9,135.3-7.1,199.6,9.5c65.9,19.1,119.6,36.4,190.7,17.4c20.5-5.5,40.9-12.5,61.4-19.4c0,0,0-0.1,0-0.1
		c8.7-8.4,16.2-19.4,8.8-29.1c-6.8-8.8-18.8-11.8-29.4-13.3c-19.5-2.8-41.4-6.1-62.4,1.9c-16.7,6.4-37.8,31.8-7.6,30.2
		c5.2-0.3,10.8-0.5,15.9-2c12.9-3.7,7.5-15.3-2.7-13.1c-3.8,0.7-7.6,1.4-11.4,2.1c-3.4,1.6-7.1-1.8-2.9-3.7
		c10-4.8,27.6-5.3,32.4,7.1c4.6,11.8-26.5,14.4-31.9,14.4c-11.3,0-26.5-2.1-21.9-17c5.5-17.6,29.3-27.6,45.2-31.8
		c5.2-1.4,12.2-2.2,20.2-2.5h0.1c39.5-4.3,195.7,5.5,297.1,30.6h0c1.1,0.2,2.2,0.4,3.2,0.5c20.4,3.3,41.7,9.5,61.8,14
		c54,12.1,107.3,26.5,163.2,23.8c13.8-0.7,36.5-2.1,44-15.9c4.3-7.7,7-18.5,0.6-26.1c-10.3-12.4-28-16.5-43.3-18.6
		c-8.5-1.2-15.3-2.1-26.7,0c-11.8,2.2-28.3,14.7-13.6,21.2c4.9,2.2,9.9,3.8,15.2,4.6c10,1.5,20,1.9,30.1,1.7
		c17.9-0.4,17.2-10.6,8.7-14c-3.2-1.4-6.5-2.4-9.9-3.1c-6.2-1.2-10.2,0.6-3.7,3.6c3.8,1.1-1.4,2.1-3.5,1.5c-6.8-2.1-9.5-5.3-1.9-8.6
		c7.2-3,17.7,0.1,24.3,3.3c7.4,3.5,13,10,5.8,16.4c-6.2,5.7-18.7,4.7-26.4,4.7c-9.3,0-74.9-5.7-51.6-29.9
		c14.1-14.6,52.7-12.2,70.3-9c16,2.9,77.9,15,56.8,75.6c33.8-4.7,67.7-8.3,101.5-14.2c8.9-7.3,15.7-20.2,12.5-31.9
		c-3.7-13.7-18.5-19-28-7.3c-7.8,9.7-2.2,15.6,9.4,14.6c4.6-0.4,3.1,4.5-0.6,4.8c-12.3,1.1-23.3-3-16.9-17.9
		c8.6-19.9,30.2-17.6,41.1-13.1c17.9,7.3,23.5,32.3,13.5,45C1752,517,1771.6,510.7,1791.2,506.4z"/>
	<linearGradient id="SVGID_7_" gradientUnits="userSpaceOnUse" x1="-3.750001e-07" y1="553.9015" x2="1999.963" y2="553.9015">
		<stop  offset="0" style="stop-color:#A7AE3A"/>
		<stop  offset="0.3381" style="stop-color:#9DA63A"/>
		<stop  offset="0.9154" style="stop-color:#82923B"/>
		<stop  offset="1" style="stop-color:#7D8F3B"/>
	</linearGradient>
	<path fill="url(#SVGID_7_)" d="M2000,327.4v453H0V338.6c36.1,0.3,83.4,18,122.8,36c33.8,15.4,61.7,31.1,71.5,36.2
		c55.3,29.8,108.7,61.1,163.5,89.7c21.9,11.5,44,22.5,66.6,32.9c67.9,33.9,145.3,47,217,65.2c83,20.9,171.7,60,256.6,47
		c56.6-10.5,112.1-41.4,167-62.7c58.5-22.6,108.5-26,161.3-26c79.2,0,156.6,18.3,234,13.1c96.2-5.2,196.2-80.9,284.9-133.1
		c0.1,0,0.1-0.1,0.2-0.1C1828.8,387.4,1912.1,343.1,2000,327.4z"/>
	<linearGradient id="SVGID_8_" gradientUnits="userSpaceOnUse" x1="1000.0175" y1="780.4064" x2="1000.0175" y2="342.4999">
		<stop  offset="0" style="stop-color:#B8AE7A"/>
		<stop  offset="6.050360e-02" style="stop-color:#C0B88A"/>
		<stop  offset="0.2429" style="stop-color:#D4D3B5"/>
		<stop  offset="0.4072" style="stop-color:#E4E7D4"/>
		<stop  offset="0.5459" style="stop-color:#EDF3E7"/>
		<stop  offset="0.6424" style="stop-color:#F0F7EE"/>
	</linearGradient>
	<path opacity="0.75" fill="url(#SVGID_8_)" d="M224.6,427.3C154.1,409.9,66.5,342.2,0,396.2v-7.7c59.8-40.5,127.3-3.7,191,20.5
		c0,0,0.1,0,0.1,0c1.2,0.6,2.3,1.2,3.2,1.7C204.5,416.3,214.6,421.8,224.6,427.3z M262,448.1c-21.2,5.7-42.9,9.2-65.4,9.2
		c-32.8,0-65.7-11.1-96.7-20.7c-32.1-10-66.4-23.8-99.8-18v3.1c25.1-4.1,53.6,6.9,76.3,14.3c27.7,9,55.6,17.4,84.3,22.8
		c35.1,6.7,71.1,1.6,105.5-8.3C264.7,449.6,263.4,448.9,262,448.1z M318.9,479.7c-40.7,34.5-109,29.2-158,20.9
		c-29.2-5-57.8-11.8-87.5-12.9c-24.5-0.9-49.1,0.8-73.4,3.9v6.3c29.7-3.7,59.5-5.1,89.4-2.3c38,3.6,74.5,15.2,112.8,16.6
		c42.8,1.6,90.3-1.5,123.5-28.8C323.5,482.2,321.2,480.9,318.9,479.7z M357.9,500.5c-1.5-0.8-2.9-1.5-4.4-2.3
		c-2.3,2.7-4.6,5.4-6.9,8.1c-16.8,19.8-34.4,30.6-60.9,32.6c-36.5,2.8-74.6-0.4-111.3-0.4c-39.6,0-79.4-1.2-119,0.3
		c-19,0.7-37.9,3.4-55.4,10.3v4.5c33.2-14.8,74.2-10.2,109.6-10.2c44.4,0,89-1,133.4,0.3c26.3,0.8,52.7,1.6,77.6-8.3
		c16.7-6.6,28.3-20,39.9-33.5C359.6,501.4,358.8,501,357.9,500.5z M400.9,522.2c-16.8,21.8-43.7,38.5-65.5,51.2
		c-48.3,28.1-97.2,23.8-150,14.8C121.7,577.5,45.6,589,0,638.3v12.3c26.6-35.6,72-55.2,115.2-60.9c48.4-6.4,95.8,15.9,144.3,12.1
		c38.8-3.1,72.7-17.9,104.6-39.7c14.9-10.2,31.3-22,43.8-36.5C405.6,524.6,403.3,523.4,400.9,522.2z M429.6,535.9
		c-12.3,16.9-18.7,38-31.9,54.6c-22.7,28.6-56.6,49.5-92.6,54.9c-30.6,4.6-63.1,1.5-94,1.5c-29.4,0-58.7,0.8-88,4.1
		C80.5,656,37.9,670.2,0,691.1v6c6.6-3.9,13.5-7.5,20.5-10.8c59.5-28.7,120.8-34.2,186-34.3c49.9-0.1,102.7,6.1,148.2-18.5
		c20.1-10.8,38.1-26.2,52.9-43.4c12.9-14.9,18.8-34.3,29.3-50.6C434.5,538.3,432,537.1,429.6,535.9z M458.9,548.7
		c-4.4,9.2-8.2,18.6-11,28.7c-6.7,23.8-14.6,42.6-34.1,59c-18.2,15.2-42.6,22.7-64.1,31.6c-28.8,11.8-59.6,17.9-90.2,23.1
		c-40.8,7-83,11-121.2,28c-24.1,10.8-45,35.3-57.9,61.3h11c5.1-9.3,11.1-18.1,17.1-26.9c17.5-25.5,39.8-36.5,69.4-44
		C226.7,697,277.4,694.1,326,680c34.5-10,73.8-24.4,101.7-47.8c16-13.4,24.2-31.8,29.5-51.5c2.8-10.2,6.2-19.6,10.3-28.8
		C464.6,550.9,461.8,549.8,458.9,548.7z M494.6,561.2c-27.5,29.1-21.6,73.6-47.5,104.4c-13.3,15.8-36,22.5-54.6,29.6
		c-28.4,10.9-57.1,21.3-85.2,33.1c-30.1,12.5-62,27.2-82.6,52.1h11c3.7-4.1,8-7.9,12.7-11.4c38.8-28.5,86.3-43.2,130.6-60.1
		c29.1-11.1,63-20.3,82.3-46.5c22-30,15.8-71.6,42.6-98.2C500.9,563.2,497.7,562.3,494.6,561.2z M552.6,577.3
		c-17.9,8.3-30.6,22.3-37,43.7c-4.5,14.9-7.4,30.3-11.9,45.2c-7.6,25.4-22.8,43.7-44.4,58.6c-26.5,18.4-61,30.4-82.3,55.5h11.7
		c5.8-6.1,12.6-11.4,19.7-16.2c26.8-18.2,56.9-30.4,80.6-53.1c19.5-18.7,26.3-46,32.4-71.3c6.9-29.1,16.5-50.2,43.7-59.5
		C560.9,579.4,556.7,578.4,552.6,577.3z M597.2,588c-3,0.7-5.9,1.6-8.6,2.6c-17.7,6.7-25.6,19.6-30.7,37.3
		c-9.1,31.5-12.4,63.8-28.6,92.9c-12,21.4-28.1,39.5-41.6,59.6h10.3c19.1-29.6,43.5-55.7,55-89.6c7-20.8,10.5-42.9,16-64.1
		c3.2-12.2,8-23.2,19.8-29.2c6.5-3.4,16.6-5.2,26.4-5.2C609.2,590.8,603.2,589.4,597.2,588z M641.5,598.7c-1.1-0.3-2.1-0.5-3.2-0.8
		c-4.9,1.5-9.6,3.6-14.1,6.7c-16.1,11.1-19.1,33.6-18.9,51.5c0.5,40.8,4.9,84-2.6,124.3h10.6c3.5-18.2,4.5-37.1,4.4-56.3
		c-0.1-21.5-1.1-43.1-1.3-64.6c-0.2-15.2,0.3-28.1,7.2-42c5.8-11.6,16.3-15.2,27.5-16.3C647.9,600.3,644.7,599.5,641.5,598.7z
		 M688.3,727.1c-13.8-22.1-21.9-40.5-21-66.9c0.6-18.6,11.6-33,16.2-49.8c-3.4-1-6.7-2-10-2.9c-3.4,16.3-14,30.5-16.6,47.5
		c-3.3,21.5,1.5,41.6,11.7,60.5c9.2,17.1,20.8,32.2,27.5,50.6c1.7,4.6,3.1,9.4,4.1,14.3h11C707,761.7,698.8,743.8,688.3,727.1z
		 M762.1,733.7c-16.3-16.5-32.2-31.6-38-54.9c-4.6-18.5-2.7-38.2-3.7-57.4c-3.8-1.1-7.6-2.3-11.4-3.4c2,19.5,0.6,39.1,3.1,58.6
		c2.8,20.9,15.1,36.1,29.2,50.8c16.3,16.9,33.7,33.6,44.6,52.9h12.6C790.1,763.4,776.5,748.4,762.1,733.7z M836,723
		c-19.5-13.3-41.9-24.6-50.2-48c-4.6-12.9-5.9-26.5-10.8-38.6c-4.7-1.1-9.4-2.3-14.1-3.5c8,13.3,10,30.1,14,45.1
		c5.2,19.8,24.4,31.6,40.3,42.2c21.2,14.2,38.7,27.2,51.4,50c1.8,3.3,3.5,6.8,5,10.3h11.4C873.8,757.7,858.1,738.1,836,723z
		 M923.6,729.5c-22.8-9.6-42.8-18.7-54.9-41.5c-5.9-11.1-9.2-22.8-16.2-33.4c-1.5-2.3-3.3-4.6-5.1-6.8c-5.1-0.2-10.1-0.6-15.2-1.2
		c4.4,4.6,8.4,9.5,12,15c6.9,10.4,10,22.7,15.8,33.6c9.2,17.4,26.7,26.6,44,34.1c29.9,13.1,57.5,27.6,73.8,51.1H991
		C976.7,757.2,952.1,741.5,923.6,729.5z M1014.9,718.7c-25.2-9.7-55-13.8-71.6-37c-12-16.9-22.9-28.8-38.8-37.3
		c-2.1,0.5-4.3,0.9-6.4,1.3c-3.3,0.5-6.6,0.9-9.9,1.3c8.5,3.2,16.5,7.3,23.9,13c11.7,9,17.7,22.8,26.8,33.9
		c13.4,16.3,37.7,20.7,56.5,27.3c35.4,12.5,74.6,28.8,96.5,59.2h13.3C1085.6,749.7,1049.4,732,1014.9,718.7z M1165,752.3
		c-12.2-24.5-39.3-36.2-63.6-44.8c-29.4-10.4-61.6-14.2-89.2-29.2c-14.5-7.9-20.9-21.7-28.4-35.7c-4.2-7.8-9.7-13.6-16.4-18
		c-3.9,1.5-7.8,3.1-11.7,4.5c21.5,13.6,25.5,41.7,48.1,55.6c24.4,15,54.6,18.4,81.5,26.9c32.6,10.4,62.8,23.7,75.1,58
		c1.2,3.2,1.7,6.9,2,10.7h12C1173.2,770.6,1169.5,761.2,1165,752.3z M1232.3,776.7c-10.9-33.2-12.3-69.7-44.3-90.3
		c-33.4-21.5-71.2-33.2-109.7-41.5c-19.7-4.2-34.8-6.2-43.7-25.9c-3.2-7-5.7-13.5-9.9-19c-3.3,1.4-6.7,2.9-10,4.4
		c5.8,8.1,8.5,18.1,13.9,27c9.4,15.2,31.7,15.8,47.1,19.1c25.5,5.5,50.1,12.6,73.5,24.4c20.6,10.4,40.9,19.5,52.5,40.5
		c11.3,20.5,12.9,44.2,20.6,65h11.3C1233.1,779.2,1232.7,778,1232.3,776.7z M1312.4,752.9c-16-14-21.8-32.4-28.9-51.7
		c-5.7-15.7-15.2-27.4-28-38c-26.2-21.7-61.3-32.8-93.2-42.9c-20.7-6.6-41.1-11.4-59.4-23.7c-10.5-7.1-19.8-13.7-31.5-15.8
		c0,0,0,0,0,0c-2.1,0.8-4.1,1.5-6.2,2.3c-1.7,0.7-3.5,1.4-5.2,2.1c20.1,1.3,37.4,20,55.5,27.8c16.8,7.2,35.4,11.1,52.8,16.9
		c35.1,11.7,75.8,26.8,97.1,59c10.3,15.7,12.9,35.4,22.4,51.7c7.9,13.5,22.4,23.6,34.9,32.5c3.6,2.6,7.4,5.1,11.2,7.5h16.5
		C1336.4,772.4,1323.6,762.7,1312.4,752.9z M1391.9,720.6c-22.6-33.5-56.8-56.8-91.5-76.3c-16.1-9.1-32.7-18.8-50.1-25.2
		c-17.8-6.5-36.7-8.9-54.1-16.7c-20.1-8.9-24.1-25.2-35.2-41.8c-0.1-0.2-0.3-0.5-0.4-0.6c-4.5,0.5-9,1-13.6,1.7
		c1.4,0.9,2.7,2,3.9,3.2c5,5.5,6.8,13.7,10.5,20.1c8.9,15.1,24.2,22.8,40.4,28.3c16.3,5.5,33.4,8.1,49.3,14.9
		c19.1,8.1,37.6,19.4,55.4,30c17.5,10.4,33.9,22.4,48.8,36.2c15.7,14.6,26.4,32.5,39.9,48.9c12.8,15.6,28.9,28.1,46.9,37.2h20.7
		C1433.9,768.4,1410.1,747.5,1391.9,720.6z M1585.9,729c-36.5-33.4-79.3-44.9-126.1-55.7c-14.5-3.4-27.8-8.1-38.4-18.9
		c-6.1-6.2-10.8-13.8-17.5-19.3c-16.9-13.7-37.2-21.2-57.6-27.9c-20.9-6.9-41.8-13.7-62.6-20.6c-11.2-3.7-29.6-7-30-21.9
		c-0.1-2.7-0.1-5-0.4-6.9c-3.9-0.2-7.8-0.3-11.8-0.4c2.4,5.8-0.9,12.1,3.2,18.2c3.7,5.5,8.5,9.1,14.6,11.7
		c17.5,7.4,36.1,13.4,54.2,19c22.3,6.9,44.9,13.2,65.7,24c19.7,10.3,29.4,30.8,48.5,41.7c20.5,11.6,48.1,12.7,70.6,18.6
		c24.2,6.4,47,19.7,66.9,34.5c20.2,15.1,36.2,34.2,48.8,55.5h12.7C1615.8,761.5,1602.5,744.2,1585.9,729z M1724.2,750.9
		c-12.5-20.8-27.1-31.1-48.8-42.5c-45-23.5-94.9-40.3-145.3-47.8c-24-3.5-46.4-6-62.1-25.7c-13.8-17.2-39.2-28.3-59.4-35.6
		c-12.3-4.5-26.1-6.5-36.3-15.3c-5.8-5.1-9.6-11.7-14.9-17.2c-5.9-0.6-11.8-1.2-17.8-1.8c10,8.2,17.3,20.6,30.1,28.6
		c8.5,5.4,20.6,7.2,30.1,10.4c13.2,4.5,25.3,11.1,37.4,18c15.5,8.8,22.6,24.7,38.3,32.5c17.4,8.6,38.9,9.8,57.8,12.7
		c52.1,8,104.8,28.6,150,55.3c10.5,6.2,18.3,11.8,24.9,22.2c5,7.7,8.9,15.5,14.7,22.7c5.4,6.5,13.3,10.2,21.9,12.9h27.3
		C1753.6,773.5,1736.1,770.7,1724.2,750.9z M1962.7,776.3c-28-5.4-55.9-11.8-83.3-19.7c-30.9-8.9-60.6-21.4-87.5-39
		c-23.5-15.4-41.8-37.5-62.5-56.3c-42-38-95.3-38.2-148.4-42.5c-15.5-1.2-30.8-4-45.5-9.1c-15.9-5.5-25.8-16.5-36.9-28.3
		c-6-6.3-12.8-10.4-20.2-13.2c-5.9,0.8-11.8,1.4-17.8,1.7c-4.7,0.3-9.4,0.6-14.1,0.7c12.1,1.2,23.7,3.1,35,9.2
		c12,6.5,19.8,21.3,31.1,29.2c21.3,14.9,51.8,16.9,76.8,18.6c31.6,2.2,62,3.2,92,14.8c30.5,11.8,51.1,36.9,74.4,58.5
		c45.3,42.2,103.6,61.2,162.9,74.6c6.3,1.4,12.9,3.1,19.9,4.8h47.2C1977.6,779.2,1969.8,777.7,1962.7,776.3z M1905.8,665.5
		c-41.5-19.2-77.6-49.8-121.3-64.3c-48.8-16.1-100-22.9-151.3-23.8c-13.3-0.2-26.4,0.6-39.7,0.2c-17.4-0.6-30.2-10-44.8-17.9
		c-4.8-2.6-9.8-4.4-15.1-5.5c-5.5,2-11,3.8-16.5,5.4c23.1,1.9,40.8,19.4,64.6,23.6c26.3,4.6,55.3,0.3,82.1,2.1
		c62.5,4.2,120.3,20.1,174,52.3c34.8,20.9,69.2,40.6,108.6,51.5c16.3,4.5,36.2,7.8,53.5,4v-5.6
		C1971.3,695.5,1927.7,675.6,1905.8,665.5z M1972.5,600.9c-22.1-1.1-43.5-9.4-63.8-17.5c-34.5-13.9-67-30.5-103.6-38.2
		c-16.5-3.5-33.4-4.7-50.3-5.4c-25-1-50.6,3.2-74.6-5.8c-16.3-6.2-30.6-14.5-48.6-14.3c-9.7,0.1-19.2,1.5-28.7,3l0,0
		c-7.5,4-15.1,7.9-22.6,11.6c14.9-1.5,29.4-4.9,44.4-6c23.2-1.7,40.1,12.8,61.6,17.5c17.7,4,36.4,2.5,54.4,2.3
		c22.4-0.2,44.6,2.1,66.6,6.8c39.5,8.4,75.1,29.2,112.7,43.1c17.6,6.5,36,10.8,54.7,11.8c9.1,0.5,17.2-1.4,25.3-3.5v-8.8
		C1991.2,599.5,1982.3,601.4,1972.5,600.9z M1962.1,527.4c-16.1-6.9-32.7-11.5-49.4-16.9c-19-6.2-36.3-13.9-56.1-17.7
		c-32.4-6.1-66.6-5.2-99.5-4c-22.3,0.9-44.5,3-66.9,3.2c-13.2,0.1-26.2,1.7-39.3,2.8c-4.5,2.7-8.9,5.4-13.4,8.1
		c30.2-0.5,61-3.6,91-5.5c36.8-2.3,73.8-3.5,110.4,0.4c20.9,2.2,40.5,8.4,59.8,16.5c16.6,6.9,34.5,10.2,51.2,17.2
		c15.2,6.4,35.3,11.2,49.9,21.2v-10.6C1987.7,536.2,1973.7,532.3,1962.1,527.4z M1863.2,448.9c-33.4,0.5-77.7-14.1-116.3-12.9
		c-0.4,0.2-0.7,0.4-1.1,0.6c0,0,0,0,0,0c-0.1,0-0.2,0.1-0.3,0.2c-0.1,0-0.1,0.1-0.1,0.1c-5.6,3.3-11.2,6.7-16.9,10.2
		c17.7-3.5,37.8-0.8,54.7,1.4c24.8,3.3,49.3,9,74.5,8.9c49.3-0.2,109.4-5.5,142.5,32.6v-14.8C1964.8,446,1910.6,448.3,1863.2,448.9z
		 M1796.4,407.7c0.6-0.4,1.1-0.8,1.7-1.2c-1.2,0.7-2.4,1.3-3.6,2C1795.3,408.3,1796,408,1796.4,407.7z M1950.6,400.8
		c-21.9-2.1-41.9,7.1-64.2,2.8c-21.5-4.1-43.9-11.1-65.2-9.5c0,0-0.1,0-0.1,0c-5.3,2.8-10.6,5.6-15.9,8.5
		c30.1-13,68.7,10.3,99.8,8.9c19.9-0.9,36.6-6.7,57.1-2.3c12.9,2.8,25.3,7.2,38,10.5v-7.2C1983.7,408,1967.6,402.4,1950.6,400.8z
		 M1906.6,366.5c-8.3,0-17.3-0.9-26.3-1.2c-3.5,1.5-6.9,3.1-10.5,4.7c17.1-1.8,39.9,2,51.9,1.8c26.5-0.3,52.8,0.1,78.3,7v-7.1
		C1969.5,365,1938,366.4,1906.6,366.5z M1940,342.5c0,0,0.1,0,0.1,0c20,1.2,40.2,7.2,59.8,12v8.2c-27-6.7-56.5-17.1-83.1-12.1
		c0,0-0.1,0-0.1,0L1940,342.5z M82.1,357.6c-0.9-0.3-1.8-0.7-2.8-1c-6.8-2.6-13.5-5.6-19.5-7.2c-1.9-0.5-3.7-0.9-5.6-1.2
		c0,0,0,0-0.1,0c-8-1.4-16.2-1.4-24.2-0.8c-8.4,0.6-21.5,2-30,7.5v13.3c1.6-0.7,2.9-1.9,3.3-3.5c1.7-7.7,22.8-8.5,28.6-9
		c17.2-1.3,32.3,4.6,47.9,10.6c11,4.2,20.9,5.4,30,2.6C100.9,364.9,91.5,361.1,82.1,357.6z"/>
	<g>
		<path fill="#829441" d="M814.4,717.1c-47.4-53.8-68.5-151.3-5-195.4c19.9,24.3,38.9,50.5,50.2,79.3
			C879,651.4,851,687.4,814.4,717.1z"/>
		<polygon fill="#98A846" points="828.1,706.9 828.1,695.8 813.9,657 802.5,619.4 799.4,573 807.3,537.6 803.8,572.3 807.3,617.5 
			818.8,654.6 830.5,694.7 830.9,702.9 831,705.4 		"/>
		<path fill="#9FAF3A" d="M960.6,585.7c-1.6,46.4-10,96.4-49.6,118.3c-31,17.1-63.7,15.6-96.6,13.1c-0.1-27.2,4.5-52.7,22-76.2
			C865.7,602,913.1,584.5,960.6,585.7z"/>
		<path fill="#B5BA45" d="M949.3,594.3c-8,4.7-45.5,28.2-45.5,28.2l-38.9,41.2l-35.8,43.2l-3.3,1v-1l2.9-1.5l-0.1-2.5l30.2-42.2
			l40.6-41.3C899.5,619.4,940.9,598.7,949.3,594.3z"/>
		<path fill="#A23B44" d="M866.5,702.6c3.8,9.1-2.6,20.4-14.2,25.1c-11.6,4.8-24,1.2-27.8-7.9c-3.8-9.1,2.6-20.4,14.2-25.1
			C850.3,690,862.7,693.5,866.5,702.6z"/>
		<path fill="#985544" d="M805.5,695.2c7.2,5.8,7.4,17.5,0.4,26.2c-7,8.6-18.5,10.9-25.7,5.1c-7.2-5.8-7.4-17.5-0.4-26.2
			C786.9,691.7,798.3,689.4,805.5,695.2z"/>
		<linearGradient id="SVGID_9_" gradientUnits="userSpaceOnUse" x1="791.7351" y1="708.9075" x2="830.3823" y2="708.9075">
			<stop  offset="0" style="stop-color:#A37D1A"/>
			<stop  offset="0.9879" style="stop-color:#B67A26"/>
		</linearGradient>
		<path fill="url(#SVGID_9_)" d="M824.5,692.3c7.7,6.2,7.9,18.7,0.4,27.9c-7.4,9.2-19.7,11.6-27.3,5.4c-7.7-6.2-7.8-18.7-0.4-27.8
			C804.6,688.5,816.9,686.1,824.5,692.3z"/>
		<path fill="#C1593F" d="M926.6,705.2c2.8,8.5-3.3,18.2-13.5,21.5c-10.2,3.3-20.8-0.9-23.6-9.5c-2.8-8.5,3.3-18.2,13.5-21.5
			C913.3,692.4,923.8,696.7,926.6,705.2z"/>
		
			<linearGradient id="SVGID_10_" gradientUnits="userSpaceOnUse" x1="1032.302" y1="718.5316" x2="1064.5834" y2="718.5316" gradientTransform="matrix(0.8384 0.5451 -0.5451 0.8384 392.7624 -460.1719)">
			<stop  offset="0" style="stop-color:#A37D1A"/>
			<stop  offset="0.9879" style="stop-color:#B67A26"/>
		</linearGradient>
		<path fill="url(#SVGID_10_)" d="M897.1,708.2c2.5,7.8-3,16.6-12.4,19.7c-9.4,3-19.1-0.8-21.6-8.7c-2.5-7.8,3-16.6,12.4-19.7
			C884.9,696.5,894.5,700.4,897.1,708.2z"/>
		<path fill="#BE3857" d="M756.7,700.6c5.2-6.9,16.5-7.2,25.3-0.7c8.8,6.6,11.8,17.5,6.7,24.4c-5.2,6.9-16.5,7.2-25.3,0.7
			C754.5,718.5,751.5,707.6,756.7,700.6z"/>
		<path fill="#BE1E2D" d="M842.5,703.9c3.7,9.1-2.6,20.4-14.2,25.1c-11.6,4.8-24,1.3-27.8-7.9c-3.8-9.1,2.6-20.4,14.2-25.1
			C826.3,691.2,838.7,694.7,842.5,703.9z"/>
	</g>
	<rect y="728.3" fill="#846A62" width="2000" height="122.1"/>
	<g>
		<g>
			<path fill="#7A5B5A" d="M832.8,309.8v153.6c0,9-7.4,16.4-16.4,16.4c-4.5,0-8.6-1.8-11.6-4.8c-3-3-4.8-7.1-4.8-11.6V321.6
				c0-8.3-2.8-15.8-7.6-21.8h0c0-0.1-0.1-0.1-0.1-0.2c-7.2-7.6-20.5-7.4-24.2-7.4V255h10C808.3,255,832.8,279.5,832.8,309.8z"/>
			<linearGradient id="SVGID_11_" gradientUnits="userSpaceOnUse" x1="602.6965" y1="727.7651" x2="602.6965" y2="254.9704">
				<stop  offset="0" style="stop-color:#D8B59D"/>
				<stop  offset="0.5797" style="stop-color:#BBA8A0"/>
				<stop  offset="0.9879" style="stop-color:#ABA1A1"/>
			</linearGradient>
			<path fill="url(#SVGID_11_)" d="M503.6,455.8L462.6,255h119.3h41.5h119.4l-41.1,200.8h-78.3h-41.5H503.6z M623.4,501.3h-41.5
				h-78.3l-41.1,226.5h119.3h41.5h119.4l-41.1-226.5H623.4z"/>
			<rect x="503.6" y="455.8" fill="#7A5B5A" width="198.1" height="45.5"/>
			<polygon fill="#887D80" points="462.6,255 462.6,255 409.4,269 488.7,382.9 			"/>
			<polygon fill="#887D80" points="602.7,213.6 462.6,255 602.7,255 742.8,255 			"/>
			<path fill="#7A5B5A" d="M623.9,192.9c-0.1,11.2-3.7,21.1-9.1,27.1h-24.6c-5.4-6.1-9-16.1-8.8-27.5c0.1-18.5,9.7-23.5,21.4-23.3
				C614.6,169.3,624.1,174.3,623.9,192.9z"/>
			<polygon fill="#887D80" points="768,255 768,324.9 728.5,324.9 730.8,313.9 742.8,255.1 742.8,255 			"/>
			<linearGradient id="SVGID_12_" gradientUnits="userSpaceOnUse" x1="602.6642" y1="715.7223" x2="602.6642" y2="263.2763">
				<stop  offset="0" style="stop-color:#E3E0E6"/>
				<stop  offset="1" style="stop-color:#C9D1E0"/>
			</linearGradient>
			<path opacity="0.46" fill="url(#SVGID_12_)" d="M550.2,447.8l-15.7-184.5h136.3l-14.7,184.5H550.2z M549.3,510.4l-14.7,205.4
				h136.3l-15.7-205.4H549.3z"/>
		</g>
		<polygon fill="#FBC6AB" points="742.8,727.7 462.6,727.7 498,532.5 471.9,715.7 521,715.7 548.7,517.6 542.1,715.7 663.7,715.7 
			655.5,514.4 685.9,715.7 729.4,715.7 706.6,528 		"/>
		<polygon fill="#FBC6AB" points="694.2,455.8 733,303.1 701.7,455.8 		"/>
		<polygon fill="#FBC6AB" points="503.6,455.8 473.1,306.4 512.1,455.8 		"/>
	</g>
	<g>
		<linearGradient id="SVGID_13_" gradientUnits="userSpaceOnUse" x1="238.4215" y1="683.0164" x2="426.6343" y2="494.8036">
			<stop  offset="0.1515" style="stop-color:#CFB5A4"/>
			<stop  offset="0.4803" style="stop-color:#E7D3C2"/>
			<stop  offset="0.7871" style="stop-color:#F9E7D7"/>
			<stop  offset="0.9879" style="stop-color:#FFEFDF"/>
		</linearGradient>
		<path fill="url(#SVGID_13_)" d="M459.8,546.1c-2.5,0-4.9,0.3-7.2,0.7V534H197v26.9c0,1.9,0,3.8,0,5.8v0.2h0
			c0.5,18.8,5.6,43.3,23.9,66.4c20.3,25.6,32.8,49.3,37.4,62.8c1.3,3.9,2,6.9,2,8.9h128.8c0-2,0.7-5,2-8.9c3-8.9,9.5-22.3,19.5-37.8
			c0.3-0.4,0.6-0.9,0.9-1.5c0.7-1,1.4-2.1,2.1-3.1c10.9-14.8,30.6-19.8,46.1-19.8c24.2,0,43.9-19.6,43.9-43.8
			C503.7,565.8,484,546.1,459.8,546.1z M459.8,612.1c-5.9,0-11.2-2.4-15.2-6.2c5.2-13,7.4-25.6,7.9-36.5c2.3-0.8,4.8-1.4,7.4-1.4
			c12.2,0,22.1,9.9,22.1,22.1C481.9,602.2,472,612.1,459.8,612.1z"/>
		<linearGradient id="SVGID_14_" gradientUnits="userSpaceOnUse" x1="131.2695" y1="712.1755" x2="521.7529" y2="712.1755">
			<stop  offset="1.212100e-02" style="stop-color:#DFC2AF"/>
			<stop  offset="0.4911" style="stop-color:#EDD6C4"/>
			<stop  offset="0.9879" style="stop-color:#FFEFDF"/>
		</linearGradient>
		<path fill="url(#SVGID_14_)" d="M521.8,696.1c0,0-30.9,24.4-93.2,32.2h-204c-62.3-7.8-93.2-32.2-93.2-32.2H521.8z"/>
	</g>
	<defs>
		<filter id="Adobe_OpacityMaskFilter_2_" filterUnits="userSpaceOnUse" x="313.4" y="113.5" width="831.1" height="410.9">
			<feColorMatrix  type="matrix" values="1 0 0 0 0  0 1 0 0 0  0 0 1 0 0  0 0 0 1 0"/>
		</filter>
	</defs>
	<mask maskUnits="userSpaceOnUse" x="313.4" y="113.5" width="831.1" height="410.9" id="SVGID_15_">
		<g filter="url(#Adobe_OpacityMaskFilter_2_)">
			<defs>
				<filter id="Adobe_OpacityMaskFilter_3_" filterUnits="userSpaceOnUse" x="313.4" y="113.5" width="831.1" height="410.9">
					<feFlood  style="flood-color:white;flood-opacity:1" result="back"/>
					<feBlend  in="SourceGraphic" in2="back" mode="normal"/>
				</filter>
			</defs>
			<mask maskUnits="userSpaceOnUse" x="313.4" y="113.5" width="831.1" height="410.9" id="SVGID_15_">
				<g filter="url(#Adobe_OpacityMaskFilter_3_)">
				</g>
			</mask>
			<linearGradient id="SVGID_16_" gradientUnits="userSpaceOnUse" x1="1140.9185" y1="250.4313" x2="325.2744" y2="537.7993">
				<stop  offset="0" style="stop-color:#707070"/>
				<stop  offset="0.1223" style="stop-color:#888888"/>
				<stop  offset="0.4129" style="stop-color:#BBBBBB"/>
				<stop  offset="0.6665" style="stop-color:#E0E0E0"/>
				<stop  offset="0.8707" style="stop-color:#F7F7F7"/>
				<stop  offset="1" style="stop-color:#FFFFFF"/>
			</linearGradient>
			<path mask="url(#SVGID_15_)" fill="url(#SVGID_16_)" d="M1092.9,442.9c-75.6,88.2-212.7,100.1-312.5,58.2
				c-39.7-16.7-94.6-70.5-129.5-93.6c-36.8-24.4-74.7-49.7-120.5-50.4c-50.1-0.8-102,12.2-142,41.1c-31.6,22.9-71.2,73-58.9,115.7
				c2.3,8.1-10.9,18.6-14.7-9.6c-8.7-46.9,25.6-101.7,51.8-124.6c43.9-38.3,71.8-50.5,127.4-58.8c52.8-7.9,106.8,3.3,154.1,27.8
				c22.2,11.5,46.6,29.8,66.8,43.1c23.7,15.6,45.3,35.4,71.2,47.3c43.6,19.9,102.1,9.1,143.2-10.6c39.7-18.9,75.9-50.4,98.5-88.5
				c21.3-35.9,20.2-93-7-126.4c-12.5-15.4-25.2-25.5-43.7-32.2c-15.2-5.6-36.8-4.5-51,0.3c-31.9,10.6-37.8,39.1-26.1,65.6
				c3.3,7.7,9.7,13.5,16.2,18.4c2,0.8,3.4,1.4,4.3,1.9c0.3,0,0.5-0.1,0.6-0.1c12.7-4,20.7-12.9,15.1-26c-2.6-6.2,13.8-11.1,19.4,2.3
				c14.5,34.7-21.8,58.1-42.8,59.7c-43.5,3.5-75.1-42.3-70.7-89.1c4.1-42.3,36.1-84.9,91.1-96.2c40.8-8.4,104.5-9.6,148.1,30.3
				C1166,225.9,1161.2,363.3,1092.9,442.9z"/>
		</g>
	</mask>
	<linearGradient id="SVGID_17_" gradientUnits="userSpaceOnUse" x1="1140.9185" y1="250.4313" x2="325.2744" y2="537.7993">
		<stop  offset="0" style="stop-color:#FFFFFF"/>
		<stop  offset="1" style="stop-color:#FFFFFF"/>
	</linearGradient>
	<path opacity="0.44" fill="url(#SVGID_17_)" d="M1092.9,442.9c-75.6,88.2-212.7,100.1-312.5,58.2c-39.7-16.7-94.6-70.5-129.5-93.6
		c-36.8-24.4-74.7-49.7-120.5-50.4c-50.1-0.8-102,12.2-142,41.1c-31.6,22.9-71.2,73-58.9,115.7c2.3,8.1-10.9,18.6-14.7-9.6
		c-8.7-46.9,25.6-101.7,51.8-124.6c43.9-38.3,71.8-50.5,127.4-58.8c52.8-7.9,106.8,3.3,154.1,27.8c22.2,11.5,46.6,29.8,66.8,43.1
		c23.7,15.6,45.3,35.4,71.2,47.3c43.6,19.9,102.1,9.1,143.2-10.6c39.7-18.9,75.9-50.4,98.5-88.5c21.3-35.9,20.2-93-7-126.4
		c-12.5-15.4-25.2-25.5-43.7-32.2c-15.2-5.6-36.8-4.5-51,0.3c-31.9,10.6-37.8,39.1-26.1,65.6c3.3,7.7,9.7,13.5,16.2,18.4
		c2,0.8,3.4,1.4,4.3,1.9c0.3,0,0.5-0.1,0.6-0.1c12.7-4,20.7-12.9,15.1-26c-2.6-6.2,13.8-11.1,19.4,2.3
		c14.5,34.7-21.8,58.1-42.8,59.7c-43.5,3.5-75.1-42.3-70.7-89.1c4.1-42.3,36.1-84.9,91.1-96.2c40.8-8.4,104.5-9.6,148.1,30.3
		C1166,225.9,1161.2,363.3,1092.9,442.9z"/>
	<linearGradient id="SVGID_18_" gradientUnits="userSpaceOnUse" x1="-3.750001e-07" y1="821.9611" x2="2000" y2="821.9611">
		<stop  offset="0" style="stop-color:#E3E0E6"/>
		<stop  offset="1" style="stop-color:#C9D1E0"/>
	</linearGradient>
	<polygon fill="url(#SVGID_18_)" points="2000,793.5 1871.7,793.5 1783.5,817.9 1776.4,801.9 1343.4,793.5 1044.4,812.2 
		924.5,793.5 754.7,816 794.4,793.5 520.8,793.5 220.8,809.4 0,793.5 0,850.4 2000,850.4 	"/>
	<path fill="#DAA980" d="M2000,728.3v22.2l-132.1-3.8l9.4,7.1l-49.1-7.1l-187.3,2.8l-202.7-7.8L1332.7,758l-98.7-4.2l91.8-4.1
		l45-10.1l-299.6,7.1l-400.4-6.6H431.2l94.8,15.6l87.3-3.3l-78.7,12.7L393,750.9l-266.5-12.3l-60.8,7.1l200,13.2l-158.7,4.2L0,751.9
		v-23.6H2000z M1041.1,761.5l167.9,3.5l-36.3-7.1L1041.1,761.5z M730.7,762.3l150-0.7l-101.4-5.9h-86.3l-62.3,13.2L730.7,762.3z
		 M1864.8,766.1l-73.6-8.1l-179.9,16.2L1864.8,766.1z"/>
	<defs>
		<filter id="Adobe_OpacityMaskFilter_4_" filterUnits="userSpaceOnUse" x="350" y="534" width="88.8" height="141.7">
			<feColorMatrix  type="matrix" values="1 0 0 0 0  0 1 0 0 0  0 0 1 0 0  0 0 0 1 0"/>
		</filter>
	</defs>
	<mask maskUnits="userSpaceOnUse" x="350" y="534" width="88.8" height="141.7" id="SVGID_19_">
		<g filter="url(#Adobe_OpacityMaskFilter_4_)">
			<defs>
				<filter id="Adobe_OpacityMaskFilter_5_" filterUnits="userSpaceOnUse" x="350" y="534" width="88.8" height="141.7">
					<feFlood  style="flood-color:white;flood-opacity:1" result="back"/>
					<feBlend  in="SourceGraphic" in2="back" mode="normal"/>
				</filter>
			</defs>
			<mask maskUnits="userSpaceOnUse" x="350" y="534" width="88.8" height="141.7" id="SVGID_19_">
				<g filter="url(#Adobe_OpacityMaskFilter_5_)">
				</g>
			</mask>
			<linearGradient id="SVGID_20_" gradientUnits="userSpaceOnUse" x1="394.3987" y1="675.686" x2="394.3987" y2="534.0279">
				<stop  offset="0.103" style="stop-color:#404040"/>
				<stop  offset="0.1245" style="stop-color:#464646"/>
				<stop  offset="0.3595" style="stop-color:#878787"/>
				<stop  offset="0.5728" style="stop-color:#BBBBBB"/>
				<stop  offset="0.7574" style="stop-color:#E0E0E0"/>
				<stop  offset="0.906" style="stop-color:#F7F7F7"/>
				<stop  offset="1" style="stop-color:#FFFFFF"/>
			</linearGradient>
			<path mask="url(#SVGID_19_)" fill="url(#SVGID_20_)" d="M438.8,534c-1.7,28.6-14.3,51.8-23.1,64.1c-9.4,13.2-38.4,77.6-58.9,77.6
				c-17.6,0,3.2-85.5,11.5-141.7H438.8z"/>
		</g>
	</mask>
	<linearGradient id="SVGID_21_" gradientUnits="userSpaceOnUse" x1="394.3987" y1="675.686" x2="394.3987" y2="534.0279">
		<stop  offset="0.103" style="stop-color:#FFEDDC"/>
		<stop  offset="0.1798" style="stop-color:#FFEFE0"/>
		<stop  offset="0.6815" style="stop-color:#FFFBF7"/>
		<stop  offset="1" style="stop-color:#FFFFFF"/>
	</linearGradient>
	<path opacity="0.51" fill="url(#SVGID_21_)" d="M438.8,534c-1.7,28.6-14.3,51.8-23.1,64.1c-9.4,13.2-38.4,77.6-58.9,77.6
		c-17.6,0,3.2-85.5,11.5-141.7H438.8z"/>
	<defs>
		<filter id="Adobe_OpacityMaskFilter_6_" filterUnits="userSpaceOnUse" x="214.3" y="534" width="70.3" height="141.7">
			<feColorMatrix  type="matrix" values="1 0 0 0 0  0 1 0 0 0  0 0 1 0 0  0 0 0 1 0"/>
		</filter>
	</defs>
	<mask maskUnits="userSpaceOnUse" x="214.3" y="534" width="70.3" height="141.7" id="SVGID_22_">
		<g filter="url(#Adobe_OpacityMaskFilter_6_)">
			<defs>
				<filter id="Adobe_OpacityMaskFilter_7_" filterUnits="userSpaceOnUse" x="214.3" y="534" width="70.3" height="141.7">
					<feFlood  style="flood-color:white;flood-opacity:1" result="back"/>
					<feBlend  in="SourceGraphic" in2="back" mode="normal"/>
				</filter>
			</defs>
			<mask maskUnits="userSpaceOnUse" x="214.3" y="534" width="70.3" height="141.7" id="SVGID_22_">
				<g filter="url(#Adobe_OpacityMaskFilter_7_)">
				</g>
			</mask>
			
				<linearGradient id="SVGID_23_" gradientUnits="userSpaceOnUse" x1="1305.7634" y1="675.686" x2="1305.7634" y2="534.0279" gradientTransform="matrix(-1.06 0 0 1 1633.542 0)">
				<stop  offset="9.696970e-02" style="stop-color:#595959"/>
				<stop  offset="0.2879" style="stop-color:#888888"/>
				<stop  offset="0.5236" style="stop-color:#BBBBBB"/>
				<stop  offset="0.7294" style="stop-color:#E0E0E0"/>
				<stop  offset="0.8951" style="stop-color:#F7F7F7"/>
				<stop  offset="1" style="stop-color:#FFFFFF"/>
			</linearGradient>
			<path mask="url(#SVGID_22_)" fill="url(#SVGID_23_)" d="M214.3,534c1.3,28.6,11.3,51.8,18.2,64.1c7.5,13.2,30.4,77.6,46.6,77.6
				c13.9,0-2.5-85.5-9.1-141.7H214.3z"/>
		</g>
	</mask>
	
		<linearGradient id="SVGID_24_" gradientUnits="userSpaceOnUse" x1="1305.7634" y1="675.686" x2="1305.7634" y2="534.0279" gradientTransform="matrix(-1.06 0 0 1 1633.542 0)">
		<stop  offset="9.696970e-02" style="stop-color:#FFE8CD"/>
		<stop  offset="0.3468" style="stop-color:#FAE6CE"/>
		<stop  offset="1" style="stop-color:#F2E2D1"/>
	</linearGradient>
	<path opacity="0.51" fill="url(#SVGID_24_)" d="M214.3,534c1.3,28.6,11.3,51.8,18.2,64.1c7.5,13.2,30.4,77.6,46.6,77.6
		c13.9,0-2.5-85.5-9.1-141.7H214.3z"/>
	<defs>
		<filter id="Adobe_OpacityMaskFilter_8_" filterUnits="userSpaceOnUse" x="169.6" y="707.2" width="313.9" height="21.1">
			<feFlood  style="flood-color:white;flood-opacity:1" result="back"/>
			<feBlend  in="SourceGraphic" in2="back" mode="normal"/>
		</filter>
	</defs>
	<mask maskUnits="userSpaceOnUse" x="169.6" y="707.2" width="313.9" height="21.1" id="SVGID_25_">
		<g filter="url(#Adobe_OpacityMaskFilter_8_)">
			<defs>
				<filter id="Adobe_OpacityMaskFilter_9_" filterUnits="userSpaceOnUse" x="169.6" y="707.2" width="313.9" height="21.1">
					<feFlood  style="flood-color:white;flood-opacity:1" result="back"/>
					<feBlend  in="SourceGraphic" in2="back" mode="normal"/>
				</filter>
			</defs>
			<mask maskUnits="userSpaceOnUse" x="169.6" y="707.2" width="313.9" height="21.1" id="SVGID_25_">
				<g filter="url(#Adobe_OpacityMaskFilter_9_)">
				</g>
			</mask>
			<linearGradient id="SVGID_26_" gradientUnits="userSpaceOnUse" x1="326.5408" y1="728.2885" x2="326.5408" y2="707.1583">
				<stop  offset="0" style="stop-color:#FFFFFF"/>
				<stop  offset="8.523123e-02" style="stop-color:#F7F7F7"/>
				<stop  offset="0.22" style="stop-color:#E0E0E0"/>
				<stop  offset="0.3875" style="stop-color:#BBBBBB"/>
				<stop  offset="0.5812" style="stop-color:#878787"/>
				<stop  offset="0.7939" style="stop-color:#464646"/>
				<stop  offset="1" style="stop-color:#000000"/>
			</linearGradient>
			<path mask="url(#SVGID_25_)" fill="url(#SVGID_26_)" d="M483.5,715.4c-14.3,5.2-32.6,10.1-55,12.9h-204
				c-22.3-2.8-40.6-7.7-54.9-12.9c23.2-4.8,84.7-8.2,156.9-8.2C398.8,707.2,460.4,710.6,483.5,715.4z"/>
		</g>
	</mask>
	<linearGradient id="SVGID_27_" gradientUnits="userSpaceOnUse" x1="326.5408" y1="728.2885" x2="326.5408" y2="707.1583">
		<stop  offset="0" style="stop-color:#E8CEBA"/>
		<stop  offset="0.4397" style="stop-color:#EFD6C0"/>
		<stop  offset="1" style="stop-color:#FFE8CD"/>
	</linearGradient>
	<path fill="url(#SVGID_27_)" d="M483.5,715.4c-14.3,5.2-32.6,10.1-55,12.9h-204c-22.3-2.8-40.6-7.7-54.9-12.9
		c23.2-4.8,84.7-8.2,156.9-8.2C398.8,707.2,460.4,710.6,483.5,715.4z"/>
</g>
</svg>
